<mxfile host="app.diagrams.net" modified="2022-10-03T08:43:12.711Z" agent="5.0 (Windows NT 10.0; Win64; x64) AppleWebKit/537.36 (KHTML, like Gecko) Chrome/106.0.0.0 Safari/537.36" etag="sCftXHQq-vohnLYxKjo8" version="20.4.0" type="github">
  <diagram id="kgpKYQtTHZ0yAKxKKP6v" name="Page-1">
    <mxGraphModel dx="384" dy="200" grid="1" gridSize="10" guides="1" tooltips="1" connect="1" arrows="1" fold="1" page="1" pageScale="1" pageWidth="850" pageHeight="1100" math="0" shadow="0">
      <root>
        <mxCell id="0" />
        <mxCell id="1" parent="0" />
        <mxCell id="TjT66PK_iinfbol2OrdT-1" value=":Độc giả" style="shape=umlLifeline;perimeter=lifelinePerimeter;container=1;collapsible=0;recursiveResize=0;rounded=0;shadow=0;strokeWidth=1;" vertex="1" parent="1">
          <mxGeometry x="10" y="40" width="100" height="440" as="geometry" />
        </mxCell>
        <mxCell id="TjT66PK_iinfbol2OrdT-2" value="" style="points=[];perimeter=orthogonalPerimeter;rounded=0;shadow=0;strokeWidth=1;fillColor=#ffe6cc;strokeColor=#d79b00;" vertex="1" parent="TjT66PK_iinfbol2OrdT-1">
          <mxGeometry x="45" y="70" width="10" height="350" as="geometry" />
        </mxCell>
        <mxCell id="TjT66PK_iinfbol2OrdT-3" value=":Thủ thư" style="shape=umlLifeline;perimeter=lifelinePerimeter;container=1;collapsible=0;recursiveResize=0;rounded=0;shadow=0;strokeWidth=1;" vertex="1" parent="1">
          <mxGeometry x="150" y="40" width="100" height="440" as="geometry" />
        </mxCell>
        <mxCell id="TjT66PK_iinfbol2OrdT-4" value="" style="points=[];perimeter=orthogonalPerimeter;rounded=0;shadow=0;strokeWidth=1;fillColor=#ffe6cc;strokeColor=#d79b00;" vertex="1" parent="TjT66PK_iinfbol2OrdT-3">
          <mxGeometry x="45" y="70" width="10" height="350" as="geometry" />
        </mxCell>
        <mxCell id="TjT66PK_iinfbol2OrdT-10" value=":Form mượn sách" style="shape=umlLifeline;perimeter=lifelinePerimeter;container=1;collapsible=0;recursiveResize=0;rounded=0;shadow=0;strokeWidth=1;" vertex="1" parent="1">
          <mxGeometry x="290" y="40" width="100" height="440" as="geometry" />
        </mxCell>
        <mxCell id="TjT66PK_iinfbol2OrdT-11" value="" style="points=[];perimeter=orthogonalPerimeter;rounded=0;shadow=0;strokeWidth=1;fillColor=#ffe6cc;strokeColor=#d79b00;" vertex="1" parent="TjT66PK_iinfbol2OrdT-10">
          <mxGeometry x="45" y="99" width="10" height="60" as="geometry" />
        </mxCell>
        <mxCell id="TjT66PK_iinfbol2OrdT-12" value="" style="points=[];perimeter=orthogonalPerimeter;rounded=0;shadow=0;strokeWidth=1;fillColor=#fff2cc;strokeColor=#d6b656;" vertex="1" parent="TjT66PK_iinfbol2OrdT-10">
          <mxGeometry x="45" y="300" width="10" height="80" as="geometry" />
        </mxCell>
        <mxCell id="TjT66PK_iinfbol2OrdT-13" value=":DK Mượn sách" style="shape=umlLifeline;perimeter=lifelinePerimeter;container=1;collapsible=0;recursiveResize=0;rounded=0;shadow=0;strokeWidth=1;" vertex="1" parent="1">
          <mxGeometry x="420" y="40" width="100" height="440" as="geometry" />
        </mxCell>
        <mxCell id="TjT66PK_iinfbol2OrdT-14" value="" style="points=[];perimeter=orthogonalPerimeter;rounded=0;shadow=0;strokeWidth=1;fillColor=#ffe6cc;strokeColor=#d79b00;" vertex="1" parent="TjT66PK_iinfbol2OrdT-13">
          <mxGeometry x="45" y="109" width="10" height="50" as="geometry" />
        </mxCell>
        <mxCell id="TjT66PK_iinfbol2OrdT-15" value="" style="points=[];perimeter=orthogonalPerimeter;rounded=0;shadow=0;strokeWidth=1;fillColor=#ffe6cc;strokeColor=#d79b00;" vertex="1" parent="TjT66PK_iinfbol2OrdT-13">
          <mxGeometry x="45" y="310" width="10" height="50" as="geometry" />
        </mxCell>
        <mxCell id="TjT66PK_iinfbol2OrdT-22" value="Xác thực thay đổi &#xa;thành công" style="verticalAlign=bottom;endArrow=open;dashed=1;endSize=8;shadow=0;strokeWidth=1;exitX=-0.01;exitY=0.5;exitDx=0;exitDy=0;exitPerimeter=0;" edge="1" parent="1">
          <mxGeometry x="-0.0006" relative="1" as="geometry">
            <mxPoint x="95.09999999999991" y="440" as="targetPoint" />
            <mxPoint x="265" y="440" as="sourcePoint" />
            <Array as="points">
              <mxPoint x="200.10000000000002" y="440" />
            </Array>
            <mxPoint as="offset" />
          </mxGeometry>
        </mxCell>
        <mxCell id="TjT66PK_iinfbol2OrdT-23" value="Kiểm tra" style="verticalAlign=bottom;endArrow=block;shadow=0;strokeWidth=1;" edge="1" parent="1">
          <mxGeometry relative="1" as="geometry">
            <mxPoint x="440" y="350.18000000000006" as="sourcePoint" />
            <mxPoint x="590" y="350" as="targetPoint" />
            <Array as="points">
              <mxPoint x="525" y="350.18" />
              <mxPoint x="535" y="350.18" />
            </Array>
          </mxGeometry>
        </mxCell>
        <mxCell id="TjT66PK_iinfbol2OrdT-25" value=":Độc giả" style="shape=umlLifeline;perimeter=lifelinePerimeter;container=1;collapsible=0;recursiveResize=0;rounded=0;shadow=0;strokeWidth=1;" vertex="1" parent="1">
          <mxGeometry x="560" y="40" width="100" height="440" as="geometry" />
        </mxCell>
        <mxCell id="TjT66PK_iinfbol2OrdT-26" value="" style="points=[];perimeter=orthogonalPerimeter;rounded=0;shadow=0;strokeWidth=1;fillColor=#ffe6cc;strokeColor=#d79b00;" vertex="1" parent="TjT66PK_iinfbol2OrdT-25">
          <mxGeometry x="45" y="109" width="10" height="50" as="geometry" />
        </mxCell>
        <mxCell id="TjT66PK_iinfbol2OrdT-27" value="" style="points=[];perimeter=orthogonalPerimeter;rounded=0;shadow=0;strokeWidth=1;fillColor=#ffe6cc;strokeColor=#d79b00;" vertex="1" parent="TjT66PK_iinfbol2OrdT-25">
          <mxGeometry x="45" y="310" width="10" height="50" as="geometry" />
        </mxCell>
        <mxCell id="TjT66PK_iinfbol2OrdT-29" value=":Sách" style="shape=umlLifeline;perimeter=lifelinePerimeter;container=1;collapsible=0;recursiveResize=0;rounded=0;shadow=0;strokeWidth=1;" vertex="1" parent="1">
          <mxGeometry x="700" y="40" width="100" height="440" as="geometry" />
        </mxCell>
        <mxCell id="TjT66PK_iinfbol2OrdT-30" value="" style="points=[];perimeter=orthogonalPerimeter;rounded=0;shadow=0;strokeWidth=1;fillColor=#ffe6cc;strokeColor=#d79b00;" vertex="1" parent="TjT66PK_iinfbol2OrdT-29">
          <mxGeometry x="45" y="109" width="10" height="50" as="geometry" />
        </mxCell>
        <mxCell id="TjT66PK_iinfbol2OrdT-31" value="" style="points=[];perimeter=orthogonalPerimeter;rounded=0;shadow=0;strokeWidth=1;fillColor=#ffe6cc;strokeColor=#d79b00;" vertex="1" parent="TjT66PK_iinfbol2OrdT-29">
          <mxGeometry x="45" y="310" width="10" height="50" as="geometry" />
        </mxCell>
        <mxCell id="TjT66PK_iinfbol2OrdT-33" value=":Thẻ mượn" style="shape=umlLifeline;perimeter=lifelinePerimeter;container=1;collapsible=0;recursiveResize=0;rounded=0;shadow=0;strokeWidth=1;" vertex="1" parent="1">
          <mxGeometry x="840" y="40" width="100" height="440" as="geometry" />
        </mxCell>
        <mxCell id="TjT66PK_iinfbol2OrdT-34" value="" style="points=[];perimeter=orthogonalPerimeter;rounded=0;shadow=0;strokeWidth=1;fillColor=#ffe6cc;strokeColor=#d79b00;" vertex="1" parent="TjT66PK_iinfbol2OrdT-33">
          <mxGeometry x="45" y="109" width="10" height="50" as="geometry" />
        </mxCell>
        <mxCell id="TjT66PK_iinfbol2OrdT-35" value="" style="points=[];perimeter=orthogonalPerimeter;rounded=0;shadow=0;strokeWidth=1;fillColor=#ffe6cc;strokeColor=#d79b00;" vertex="1" parent="TjT66PK_iinfbol2OrdT-33">
          <mxGeometry x="45" y="310" width="10" height="50" as="geometry" />
        </mxCell>
      </root>
    </mxGraphModel>
  </diagram>
</mxfile>
